<?xml version="1.0" encoding="UTF-8" standalone="no"?>
<svg
   viewBox="0 0 66.666667 66.666667"
   width="200"
   height="200"
   version="1.1"
   id="svg1"
   sodipodi:docname="gist-editor-icon.svg"
   inkscape:version="1.3.2 (091e20e, 2023-11-25)"
   inkscape:export-filename="gist-editor-icon.png"
   inkscape:export-xdpi="96"
   inkscape:export-ydpi="96"
   xmlns:inkscape="http://www.inkscape.org/namespaces/inkscape"
   xmlns:sodipodi="http://sodipodi.sourceforge.net/DTD/sodipodi-0.dtd"
   xmlns="http://www.w3.org/2000/svg"
   xmlns:svg="http://www.w3.org/2000/svg">
  <defs
     id="defs1" />
  <sodipodi:namedview
     id="namedview1"
     pagecolor="#ffffff"
     bordercolor="#000000"
     borderopacity="0.25"
     inkscape:showpageshadow="2"
     inkscape:pageopacity="0.0"
     inkscape:pagecheckerboard="0"
     inkscape:deskcolor="#d1d1d1"
     showguides="true"
     inkscape:zoom="8.202849"
     inkscape:cx="116.36201"
     inkscape:cy="103.98826"
     inkscape:window-width="1264"
     inkscape:window-height="823"
     inkscape:window-x="0"
     inkscape:window-y="25"
     inkscape:window-maximized="0"
     inkscape:current-layer="svg1">
    <sodipodi:guide
       position="0,66.666667"
       orientation="0,200"
       id="guide1"
       inkscape:locked="false" />
    <sodipodi:guide
       position="66.666667,66.666667"
       orientation="200,0"
       id="guide2"
       inkscape:locked="false" />
    <sodipodi:guide
       position="66.666667,0"
       orientation="0,-200"
       id="guide3"
       inkscape:locked="false" />
    <sodipodi:guide
       position="0,0"
       orientation="-200,0"
       id="guide4"
       inkscape:locked="false" />
    <sodipodi:guide
       position="33.333334,111.79379"
       orientation="-1,0"
       id="guide5"
       inkscape:locked="false"
       inkscape:label=""
       inkscape:color="rgb(0,134,229)" />
    <sodipodi:guide
       position="-58.686441,33.333334"
       orientation="0,1"
       id="guide6"
       inkscape:locked="false"
       inkscape:label=""
       inkscape:color="rgb(0,134,229)" />
  </sodipodi:namedview>
  <text
     xml:space="preserve"
     style="font-size:9.77778px;fill:#000000;stroke-width:0.333333"
     x="10.381357"
     y="19.491526"
     id="text6"><tspan
       sodipodi:role="line"
       id="tspan6"
       style="font-style:normal;font-variant:normal;font-weight:600;font-stretch:normal;font-size:9.77778px;font-family:'American Typewriter';-inkscape-font-specification:'American Typewriter, Semi-Bold';font-variant-ligatures:normal;font-variant-caps:normal;font-variant-numeric:normal;font-variant-east-asian:normal;stroke-width:0.333333"
       x="10.381357"
       y="19.491526">GistEditor</tspan></text>
  <text
     xml:space="preserve"
     style="font-style:normal;font-variant:normal;font-weight:600;font-stretch:normal;font-size:9.77777px;font-family:'American Typewriter';-inkscape-font-specification:'American Typewriter, Semi-Bold';font-variant-ligatures:normal;font-variant-caps:normal;font-variant-numeric:normal;font-variant-east-asian:normal;fill:#000000;stroke-width:0.333333"
     x="19.915255"
     y="20.550848"
     id="text7"><tspan
       sodipodi:role="line"
       id="tspan7"
       style="stroke-width:0.333333"></tspan></text>
  <path
     d="m 33.353107,24.556496 c -7.513148,0 -13.618644,6.105496 -13.618644,13.618644 0,7.513148 6.105496,13.618644 13.618644,13.618644 7.513149,0 13.618644,-6.105496 13.618644,-13.618644 0,-7.513148 -6.105495,-13.618644 -13.618644,-13.618644 z m 0,1.18423 c 6.872877,0 12.434412,5.561538 12.434412,12.434414 0,0.04228 -0.0029,0.0839 -0.0034,0.126071 -0.378725,-0.03495 -0.816309,-0.06817 -1.372736,-0.08787 -0.786752,-0.0279 -1.77843,-0.01986 -2.90275,0.03585 0.0417,-0.290343 0.07092,-0.584786 0.07169,-0.887016 0.05732,-1.108806 -0.315014,-2.146113 -0.920554,-3.062344 0.146298,-0.505506 0.317908,-1.148621 0.360818,-1.878114 0.04893,-0.831494 -0.02277,-1.753512 -0.690415,-2.376557 l -0.171169,-0.15959 h -0.23361 c -1.588688,0 -2.676116,0.665071 -3.341056,1.192328 -0.960115,-0.371641 -2.039723,-0.60021 -3.23119,-0.60021 -1.198221,0 -2.288212,0.231757 -3.287856,0.602521 -0.664565,-0.527506 -1.752943,-1.194639 -3.343368,-1.194639 h -0.232445 l -0.171158,0.15845 c -0.65025,0.603806 -0.710159,1.500525 -0.669597,2.327984 0.03577,0.729655 0.197446,1.3932 0.341158,1.923216 -0.615778,0.934117 -0.985316,1.99824 -0.985316,3.05078 0,0.302942 0.0282,0.598309 0.06939,0.889327 -1.069216,-0.04959 -2.022355,-0.05914 -2.779006,-0.03241 -0.556411,0.01959 -0.994029,0.05261 -1.372733,0.08787 -3.55e-4,-0.03868 -0.0034,-0.07688 -0.0034,-0.11564 0,-6.872877 5.561541,-12.434412 12.434415,-12.434412 z m -6.278501,5.406519 c 1.194641,0.113205 2.093428,0.646655 2.509549,1.01654 l 0.277555,0.24518 0.342318,-0.139944 c 0.936399,-0.385577 1.980828,-0.607149 3.149079,-0.607149 1.168252,0 2.212966,0.222676 3.078536,0.601367 l 0.346942,0.152651 0.283335,-0.252115 c 0.416263,-0.370013 1.316575,-0.903629 2.511863,-1.01654 0.158926,0.263474 0.297019,0.638185 0.263685,1.205045 -0.0399,0.678398 -0.221379,1.417311 -0.358506,1.856141 l -0.08906,0.285649 0.176955,0.241712 c 0.585883,0.79893 0.884607,1.663565 0.833819,2.577781 l -0.0012,0.01615 v 0.01615 c 0,1.477598 -0.532081,2.660215 -1.665326,3.536501 -1.133186,0.876294 -2.922193,1.437503 -5.440025,1.437503 -2.517836,0 -4.307973,-0.561214 -5.441213,-1.437498 -1.133244,-0.876289 -1.664168,-2.058905 -1.664168,-3.536501 0,-0.867274 0.313179,-1.82135 0.891641,-2.610162 l 0.173477,-0.235915 -0.08326,-0.281027 c -0.13719,-0.466511 -0.305393,-1.222275 -0.338846,-1.904713 -0.02782,-0.567615 0.106507,-0.926383 0.24285,-1.16688 z m -3.263571,7.632731 c 0.418442,0.0053 0.898056,0.02793 1.378517,0.05205 0.04591,0.184633 0.09827,0.366238 0.161918,0.543545 -1.958337,0.04127 -3.42337,0.238217 -4.326372,0.407077 -0.03818,-0.296266 -0.06857,-0.594972 -0.08559,-0.897424 0.667342,-0.06333 1.608091,-0.121385 2.871526,-0.105236 z m 19.084141,0.0093 c 1.262565,-0.01615 2.202962,0.04207 2.870372,0.105236 -0.01694,0.298121 -0.04686,0.592599 -0.08443,0.884702 -0.935268,-0.171581 -2.439892,-0.368471 -4.448957,-0.400138 0.06235,-0.173804 0.114291,-0.352301 0.159588,-0.533137 0.530014,-0.02841 1.047092,-0.05088 1.503416,-0.05668 z m -17.291605,1.173785 c 0.353338,0.708049 0.858214,1.340246 1.525389,1.856143 0.912178,0.705349 2.098067,1.198168 3.545752,1.461783 -0.189399,0.194587 -0.361655,0.408291 -0.514629,0.633751 l -0.03587,-0.03124 c 0.0034,-0.0037 -0.294357,0.145212 -0.738987,0.18503 -0.444631,0.03982 -0.993102,0.02774 -1.479129,0.02774 -0.725339,0 -1.04483,-0.342709 -1.555456,-0.966813 -0.282761,-0.381082 -0.62748,-0.689708 -0.962188,-0.924002 -0.34272,-0.239911 -0.635083,-0.409229 -0.99688,-0.469529 l -0.04858,-0.0082 h -0.04975 c -0.276319,0 -0.543701,0.02012 -0.793342,0.305312 -0.124827,0.142644 -0.210843,0.406746 -0.154981,0.630278 0.05589,0.223523 0.197287,0.360897 0.323811,0.445242 0.809261,0.539507 0.952279,1.607286 1.459471,2.556967 0.473647,0.943785 1.495853,1.391238 2.540776,1.391238 h 1.539267 v 2.843771 c -4.163863,-1.469759 -7.303927,-5.091087 -8.093009,-9.53283 0.906472,-0.170734 2.42442,-0.376003 4.488279,-0.404768 z m 15.377642,0.0045 c 2.109543,0.018 3.670067,0.223047 4.610864,0.396672 -0.788031,4.443376 -3.929186,8.066152 -8.094165,9.536292 v -3.080849 c 0,-0.938244 -0.308112,-1.972864 -0.844228,-2.835674 -0.162765,-0.261965 -0.354247,-0.509697 -0.56783,-0.732048 1.370877,-0.270821 2.497027,-0.755182 3.373437,-1.432872 0.66573,-0.514778 1.169481,-1.145074 1.521922,-1.851516 z m -8.398316,3.595523 h 1.658381 c 0.481284,0 0.995005,0.383567 1.406273,1.045453 0.41127,0.661888 0.666129,1.550715 0.666129,2.211179 v 3.433574 c -0.948919,0.231386 -1.939892,0.356192 -2.960573,0.356192 -1.020683,0 -2.011657,-0.1248 -2.960576,-0.356192 v -3.433574 c 0,-0.645842 0.277008,-1.532572 0.715856,-2.197301 0.438852,-0.664729 0.993224,-1.059331 1.47451,-1.059331 z m -6.744561,0.699667 c 0.512635,0.531724 1.133266,1.017697 2.067774,1.017697 0.461358,0 1.037209,0.01668 1.584373,-0.03238 0.002,-1.72e-4 0.0037,-0.001 0.0058,-0.0012 -0.07212,0.207268 -0.125887,0.415794 -0.171184,0.625681 h -1.656053 c -0.730275,0 -1.246177,-0.263818 -1.483756,-0.738987 l -0.0045,-0.0082 -0.0034,-0.0069 c -0.09732,-0.180791 -0.225111,-0.542332 -0.338829,-0.85576 z"
     id="path1-6"
     style="stroke-width:0.592115" />
</svg>
